<svg width="69" height="69" viewBox="0 0 69 69" fill="none" xmlns="http://www.w3.org/2000/svg">
                <rect y="14.4939" width="56" height="56" rx="16" transform="rotate(-15 0 14.4939)" fill="#FE9F10"></rect>
                <g clip-path="url(#clip0_1_332)">
                <path d="M31.1449 21.4347C24.0614 23.3327 19.8188 30.6812 21.7168 37.7646C23.6148 44.8481 30.9633 49.0907 38.0467 47.1927C45.1302 45.2947 49.3728 37.9462 47.4748 30.8628C45.5768 23.7793 38.2283 19.5367 31.1449 21.4347ZM35.8837 33.9686C35.9527 34.2262 35.8584 34.3895 35.8929 34.5183L34.9274 38.642C34.7135 39.3895 34.0098 39.8542 33.2623 39.6403C32.5149 39.4265 32.0502 38.7228 32.264 37.9753L33.1699 34.1436L31.5824 28.2193C31.3754 27.4465 31.7525 26.7934 32.5252 26.5863C33.298 26.3792 33.9512 26.7564 34.1582 27.5291L35.8837 33.9686Z" fill="#FAFAFA"></path>
                </g>
                <defs>
                <clipPath id="clip0_1_332">
                <rect width="32" height="32" fill="white" transform="translate(15 23) rotate(-15)"></rect>
                </clipPath>
                </defs>
                </svg>