<svg width="77" height="77" viewBox="0 0 77 77" fill="none" xmlns="http://www.w3.org/2000/svg">
                    <rect x="28" width="56" height="56" rx="16" transform="rotate(30 28 0)" fill="#FE9F10"></rect>
                    <g clip-path="url(#clip0_1_336)">
                    <path d="M31.5741 28.071L28.6874 26.4043C27.5731 25.761 26.1433 26.1441 25.5 27.2584L17.8333 40.5374C17.19 41.6517 17.5731 43.0815 18.6874 43.7248L21.5741 45.3915C22.6884 46.0348 24.1182 45.6517 24.7615 44.5374L32.4282 31.2584C33.0715 30.1441 32.6884 28.7143 31.5741 28.071ZM49.2618 39.4377L43.8116 36.291C43.8116 36.291 45.6777 35.0589 47.3443 32.1722C49.3443 28.7081 47.4129 26.0534 46.2582 25.3867C45.1035 24.7201 44.1928 24.9641 42.5262 27.8508C40.9422 30.5944 37.0105 31.2682 34.6449 31.4189L26.3863 45.7233C27.7409 47.6463 30.7097 51.0508 36.4544 54.3675L38.3019 55.4342C40.5536 56.7342 43.4037 56.2242 45.0648 54.2272L50.6914 47.4683C52.8097 44.9193 52.1255 41.091 49.2618 39.4377V39.4377Z" fill="#FAFAFA"></path>
                    </g>
                    <defs>
                    <clipPath id="clip0_1_336">
                    <rect width="32" height="32" fill="white" transform="translate(32 16) rotate(30)"></rect>
                    </clipPath>
                    </defs>
                </svg>