<svg width="77" height="77" viewBox="0 0 77 77" fill="none" xmlns="http://www.w3.org/2000/svg">
                    <rect x="28" width="56" height="56" rx="16" transform="rotate(30 28 0)" fill="#a8cf96"></rect>
                    <g clip-path="url(#clip0_1_340)">
                    <path d="M52.5834 35.8616C51.5097 31.8545 47.6016 29.2903 43.5148 29.7021C41.615 25.526 36.7783 23.5033 32.4868 25.3365C28.7417 27.0233 26.6393 31.198 27.7129 35.2051L30.6412 46.1333C31.2268 48.3189 33.4207 49.5856 35.4909 48.9333L46.4191 46.0051C51.088 44.8516 53.688 40.3483 52.5834 35.8616ZM40.0909 40.9658L38.9362 40.2992L38.2695 41.4539C37.8695 42.1467 37.141 42.3419 36.4482 41.9419C35.7553 41.5419 35.5601 40.8133 35.9601 40.1205L36.6268 38.9658L35.4721 38.2992C34.7793 37.8992 34.5841 37.1706 34.9841 36.4778C35.3841 35.785 36.1126 35.5898 36.8054 35.9898L37.9601 36.6564L38.6268 35.5017C39.0268 34.8089 39.7553 34.6137 40.4482 35.0137C41.141 35.4137 41.3362 36.1422 40.9362 36.8351L40.2695 37.9898L41.4242 38.6564C42.117 39.0564 42.3123 39.785 41.9123 40.4778C41.5123 41.1706 40.7837 41.3658 40.0909 40.9658Z" fill="#FAFAFA"></path>
                    </g>
                    <defs>
                    <clipPath id="clip0_1_340">
                    <rect width="32" height="32" fill="white" transform="translate(32.5918 16.6214) rotate(30)"></rect>
                    </clipPath>
                    </defs>
                </svg>